<svg width="39" height="39" viewBox="0 0 39 39" fill="none" xmlns="http://www.w3.org/2000/svg">
<ellipse cx="20.2076" cy="18.5692" rx="14.7461" ry="14.1999" fill="#16C784"/>
<path fill-rule="evenodd" clip-rule="evenodd" d="M14.781 38.4162C25.2299 41.0212 35.8116 34.6637 38.4163 24.2173C41.0211 13.7703 34.6634 3.18797 24.2152 0.583529C13.7694 -2.02091 3.18765 4.33724 0.584123 14.7849C-2.02184 25.2307 4.33645 35.8118 14.781 38.4162ZM23.8096 11.799C26.5112 12.7295 28.487 14.1243 28.0988 16.719C27.8178 18.6184 26.7647 19.538 25.3667 19.8603C27.2864 20.8597 28.2634 22.3922 27.3327 25.0491C26.1779 28.3488 23.4342 28.6273 19.7854 27.9369L18.8999 31.4852L16.7602 30.952L17.6341 27.4512C17.0795 27.3135 16.5127 27.1672 15.9289 27.0088L15.0519 30.5261L12.9146 29.9929L13.8001 26.4378C13.6004 26.3867 13.3994 26.3343 13.1969 26.2815C12.8929 26.2022 12.5857 26.1221 12.2747 26.0442L9.49017 25.3501L10.5524 22.9011C10.5524 22.9011 12.1291 23.3203 12.1077 23.2892C12.7135 23.4391 12.9823 23.0443 13.0883 22.781L14.4876 17.1718C14.54 17.1844 14.5914 17.1972 14.6409 17.2097C14.6657 17.2159 14.6899 17.2219 14.7137 17.2278C14.6284 17.1937 14.551 17.1718 14.4912 17.1565L15.4895 13.1524C15.5157 12.6978 15.3591 12.1244 14.4925 11.908C14.526 11.8855 12.9384 11.5217 12.9384 11.5217L13.5076 9.23656L16.4585 9.97329L16.4561 9.98426C16.8997 10.0946 17.3568 10.1994 17.8224 10.3054L18.6994 6.79177L20.8379 7.32497L19.9786 10.7697C20.5527 10.9008 21.1305 11.033 21.693 11.1731L22.5462 7.75092L24.6859 8.28412L23.8096 11.799ZM17.0414 24.5425C18.7874 25.0036 22.6032 26.0113 23.2099 23.5738C23.8315 21.0815 20.1308 20.2512 18.325 19.846C18.1232 19.8008 17.9451 19.7608 17.7993 19.7244L16.6243 24.4342C16.744 24.464 16.8843 24.501 17.0414 24.5425ZM18.6878 17.6603C20.1435 18.0488 23.3186 18.896 23.8717 16.6806C24.4365 14.4146 21.3505 13.7315 19.8433 13.3979C19.6738 13.3603 19.5242 13.3272 19.4021 13.2968L18.3368 17.5685C18.4374 17.5935 18.5555 17.625 18.6878 17.6603Z" fill="#16C784"/>
<path d="M19.1861 31.6364L19.1953 29.559C17.3364 29.4235 15.8591 28.8696 14.7635 27.897C13.674 26.9245 13.0862 25.6411 13 24.0469H15.8622C15.9361 24.9025 16.2746 25.5857 16.8778 26.0966C17.4872 26.6013 18.2628 26.9122 19.2045 27.0291L19.223 20.7415L18.429 20.5291C15.1482 19.6428 13.5078 17.9777 13.5078 15.5341C13.5078 14.0691 14.0433 12.8473 15.1143 11.8686C16.1854 10.8899 17.5642 10.3175 19.2507 10.1513L19.2599 8H20.9957L20.9865 10.1328C22.6977 10.2682 24.0857 10.8161 25.1506 11.7763C26.2216 12.7365 26.7756 13.9214 26.8125 15.331H24.0611C23.9749 14.5862 23.6579 13.9799 23.1101 13.5121C22.5623 13.0381 21.8513 12.7427 20.9773 12.6257L20.9588 18.5533L21.6328 18.7287C25.2583 19.6212 27.071 21.3939 27.071 24.0469C27.071 25.5734 26.5263 26.8383 25.4368 27.8416C24.3535 28.8449 22.8516 29.4174 20.9311 29.559L20.9219 31.6364H19.1861ZM20.9403 27.0291C21.9313 26.8999 22.7285 26.5644 23.3317 26.0227C23.9411 25.4811 24.2457 24.8132 24.2457 24.0192C24.2457 23.6314 24.1657 23.2867 24.0057 22.9851C23.8456 22.6835 23.6087 22.425 23.2947 22.2095C22.9808 21.9941 22.6392 21.8125 22.2699 21.6648C21.9067 21.5109 21.4697 21.3632 20.9588 21.2216L20.9403 27.0291ZM19.2322 18.0916L19.2415 12.6349C18.3551 12.7704 17.6503 13.0874 17.1271 13.5859C16.6101 14.0784 16.3516 14.6723 16.3516 15.3679C16.3516 15.7434 16.4316 16.0881 16.5916 16.402C16.7578 16.7098 16.9886 16.9714 17.2841 17.1868C17.5795 17.3961 17.8812 17.5715 18.1889 17.7131C18.4967 17.8485 18.8445 17.9747 19.2322 18.0916Z" fill="white"/>
</svg>
